<svg height="496pt" viewBox="0 -8 496.016 496" width="496pt" xmlns="http://www.w3.org/2000/svg"><path d="m414.726562 103.929688c6 14.796874 9.28125 30.949218 9.28125 47.917968 0 8.230469-.800781 16.230469-2.238281 24.082032h58.238281l-8.007812-.082032c4.398438 0 7.921875-3.527344 8-7.917968h-.078125c0-35.441407-20.632813-64-55.992187-64zm0 0" fill="#da4453"/><path d="m447.984375 343.832031c0-46.640625-23.488281-89.488281-62.816406-114.640625-3.734375-2.390625-8.671875-1.296875-11.054688 2.425782-1.671875 2.621093-1.546875 5.832031-.082031 8.328124-18.34375 10.214844-39.480469 16.0625-62.007812 16.0625-29.664063 0-56.925782-10.167968-78.695313-27.214843 1.113281-1.359375 1.863281-3.050781 1.863281-4.953125 0-4.425782-3.574218-8-8-8h-155.085937c-.015625 0-.027344 0-.042969 0-30.878906 0-56.007812-25.128906-56.007812-56.015625 0-4.425781-3.574219-8-8-8h-.015626c-4.421874 0-7.9999995 3.574219-7.9999995 8v151.75c0 .082031-.0390625.128906-.0390625.203125 0 92.671875 75.40625 168.078125 168.089844 168.078125.03125 0 .046875-.015625.078125-.015625h143.824219.054687c74.960937-.039063 135.9375-61.039063 135.9375-136.007813zm0 0" fill="#f6bb42"/><path d="m352.023438 72.007812c13.28125 0 24 10.71875 24 24s-10.71875 24-24 24-24-10.71875-24-24 10.71875-24 24-24zm0 0" fill="#656d78"/><path d="m368.03125 87.992188c0 4.417968-3.582031 8-8 8s-8-3.582032-8-8c0-4.417969 3.582031-8 8-8s8 3.582031 8 8zm0 0" fill="#aab2bd"/><path d="m430.742188 175.929688c6-14.800782 9.28125-30.96875 9.28125-47.921876 0-8.246093-.800782-16.246093-2.238282-24.078124h50.230469v.078124c4.398437 0 7.921875 3.511719 8 7.921876h-.078125c0 35.4375-28.640625 64-64 64zm0 0" fill="#ed5565"/><g fill="#ffce54"><path d="m437.785156 103.929688c1.445313 7.832031 2.238282 15.832031 2.238282 24.078124 0 16.953126-3.28125 33.128907-9.28125 47.921876h-.078126c-10 24.871093-27.601562 45.832031-49.839843 60-19.832031 12.71875-43.441407 20.078124-68.800781 20.078124-32.480469 0-62.160157-12.078124-84.800782-32.160156-26.488281-23.359375-43.199218-57.609375-43.199218-95.839844 0-70.71875 57.28125-127.9999995 128-127.9999995 62.402343 0 114.480468 44.7187495 125.761718 103.9218755zm-61.761718-7.921876c0-13.28125-10.71875-24-24-24s-24 10.71875-24 24 10.71875 24 24 24 24-10.71875 24-24zm0 0"/><path d="m311.945312 295.832031c44.230469 0 80 35.832031 80 80 0 42.640625-33.359374 77.511719-75.449218 79.902344-1.511719 0-3.039063.097656-4.550782.097656h-71.839843c-88.480469 0-160-71.527343-160.082031-160zm0 0"/></g></svg>